<?xml version="1.0" encoding="UTF-8"?>
<svg id="Layer_1" xmlns="http://www.w3.org/2000/svg" version="1.1" viewBox="0 0 1600 1600">
  <!-- Generator: Adobe Illustrator 29.0.1, SVG Export Plug-In . SVG Version: 2.1.0 Build 192)  -->
  <defs>
    <style>
      .st0 {
        fill: #fff;
      }
    </style>
  </defs>
  <path class="st0" d="M664,339c1.1.9,2.2,1.9,3.3,2.8.6.5,1.2,1.1,1.9,1.6,3,2.6,5.8,5.4,8.6,8.3.6.6,1.3,1.3,1.9,1.9,2.1,2.1,4.1,4.2,6.2,6.2,1.4,1.4,2.9,2.9,4.3,4.3,3.8,3.8,7.6,7.6,11.4,11.4,3.9,3.9,7.7,7.8,11.6,11.6,7.6,7.6,15.2,15.2,22.8,22.8-103.8,121.2-225.2,226.2-338,339,330.7.3,661.3.7,1002,1v100c-330.7.3-661.3.7-1002,1,111.5,111.5,223.1,223.1,338,338-4.1,4.8-8.2,9.3-12.6,13.8-.6.6-1.3,1.3-1.9,1.9-2.1,2.1-4.2,4.1-6.2,6.2-1.4,1.4-2.9,2.9-4.3,4.3-3.8,3.8-7.6,7.6-11.4,11.4s-7.8,7.7-11.6,11.6c-7.6,7.6-15.2,15.2-22.8,22.8-5.2-4.4-10.1-9-15-13.8-.8-.8-1.5-1.5-2.3-2.3-2.6-2.6-5.2-5.2-7.8-7.8-1.9-1.9-3.8-3.8-5.6-5.6-4.1-4.1-8.2-8.2-12.2-12.3-6.1-6.1-12.1-12.1-18.2-18.2-10.2-10.2-20.4-20.4-30.6-30.6s-20.2-20.2-30.3-30.3c-.6-.6-1.3-1.3-1.9-1.9-3.2-3.2-6.4-6.4-9.6-9.6-22.6-22.6-45.2-45.2-67.9-67.9-22-22-43.9-44-65.9-65.9-.7-.7-1.4-1.4-2.1-2.1-6.8-6.8-13.6-13.6-20.4-20.4-13.9-13.9-27.7-27.7-41.6-41.6-.7-.7-1.3-1.3-1.9-1.9-42.5-42.6-85.1-85.1-127.6-127.7,1.4-3,2.9-5.1,5.2-7.4.7-.7,1.3-1.3,2-2,.7-.7,1.5-1.5,2.2-2.2.8-.8,1.6-1.6,2.4-2.4,2.6-2.6,5.3-5.2,7.9-7.9,1.9-1.9,3.8-3.8,5.7-5.7,4.1-4.1,8.2-8.2,12.4-12.4,6.1-6.1,12.3-12.3,18.4-18.4,10.3-10.3,20.6-20.6,31-30.9,10.2-10.2,20.4-20.4,30.7-30.6.6-.6,1.3-1.3,1.9-1.9,3.2-3.2,6.4-6.4,9.7-9.7l68.5-68.5c22.2-22.2,44.4-44.4,66.6-66.6.7-.7,1.4-1.4,2.1-2.1,6.9-6.9,13.7-13.7,20.6-20.6l42-42c.6-.6,1.3-1.3,1.9-1.9,43-43,86-85.9,129-128.9h-.5Z"/>
</svg>