<?xml version="1.0" encoding="UTF-8"?>
<svg id="Layer_1" xmlns="http://www.w3.org/2000/svg" version="1.1" viewBox="0 0 839.1 742">
  <!-- Generator: Adobe Illustrator 29.0.1, SVG Export Plug-In . SVG Version: 2.1.0 Build 192)  -->
  <defs>
    <style>
      .st0 {
        fill: #fff;
        stroke: #58595b;
        stroke-width: 3px;
      }

      .st0, .st1 {
        stroke-miterlimit: 10;
      }

      .st1 {
        display: none;
        fill: none;
        stroke: #010101;
        stroke-width: 1.5px;
      }
    </style>
  </defs>
  <rect id="genfill-sample-file-last-art" class="st1" width="839.1" height="742"/>
  <path class="st0" d="M784.1,326.7c-1.5-5.1-4-4.8-8.2-6.6-1-.4-7.6-.7-11.5-1.6-3.2-.6-6.6-1.1-9.8-1.6-3.7-.7-7.5-.9-11.5-1.6-3.3-.5-6.6-1.1-9.8-1.6-3.8-.7-7.4-.8-11.5-1.6-3.4-.6-6.3-.9-9.8-1.6-3.4-.8-5.2-.2-9.8-1.6-1.9-.5-5.1.4-7.4,0-4-2.3-1.7-5.9-2.5-8.2-2.4-3.8-1-5.1-1.6-6.6-1.1-2.5-1.1-3.6-1.6-4.9-.9-2.2-1.2-3.8-1.6-4.9-1-2.3-1.2-3.9-1.6-4.9-1.2-3.3-2.4-7.6-3.3-9.8-7-15.5-16.1-30.3-23-45.9v-1.6l52.5-73-70.5-71.3h-1.6l-69.7,54.1c-5.1.9-36-18.1-43.4-21.3-2.9-1.1-5.4-2.2-8.2-3.3-1.4-.6-3.1-.9-4.9-1.6-1.4-.6-2.8-1.4-3.3-1.6-1-.4-2.8-.8-4.9-1.6-1.4-.5-3.1-.2-6.6-1.6-1.6-.5-3.4-1.1-4.9-1.6-2-.7-2.7.4-6.6-1.6-1.5-.8-5.8,1.9-4.9-3.3-3.2-.9-1.1-5.8-1.6-8.2-1.1-4.4-.8-7.5-1.6-11.5-.7-3.4-1-6.5-1.6-9.8-.7-4-.9-7.7-1.6-11.5-.6-3.3-1.1-6.6-1.6-9.8-.7-3.9-.9-7.8-1.6-11.5-.6-3.3-1-6.7-1.6-9.8-.9-4.4-2.7-8.3-1.6-13.1l-1.6-1.6h-96.7c-1.2,2.7-2.1,5.4-3.3,8.2-.2.5-1,6.9-1.6,9.8-.7,3.6-1,7.6-1.6,11.5-.6,3.1-1.1,6.6-1.6,9.8-.7,3.8-.9,7.5-1.6,11.5-.6,3.2-1.1,6.6-1.6,9.8-.8,4-.5,7.1-1.6,11.5-.7,3.5-.6,6-1.6,9.8-.4,1.6.3,4,0,5.7-2.4,3.7-5.3,1.8-6.6,2.5-3.8,2.1-5.2,1.1-6.6,1.6-2.5,1.1-3.6,1.1-4.9,1.6-2.1.8-3.3,1-4.9,1.6-1.7.6-3.3,1.1-4.9,1.6-1.7.6-3.4,1.1-4.9,1.6-1.8.7-3.5,1.1-4.9,1.6-.2,0-1.5.9-3.3,1.6-6.6,3-43.6,23.3-46.7,23l-72.1-52.5-69.7,69.7,52.5,70.5c.6,3.1-22.8,49.2-26.2,56.6-.5,1.5-1.1,3.3-1.6,4.9s-1.1,3.4-1.6,4.9c-.5,1.7-1.1,3.3-1.6,4.9-.6,1.9-.2,3.1-1.6,6.6-.7,1.7.8,2.8-1.6,6.6-.5.8.9,4-.8,4.9-2.3.3-5.3-.5-7.4,0-5.5,2-7.3.8-11.5,1.6-3.5.7-6.5,1-9.8,1.6-3.4.7-6.5,1-9.8,1.6-3.9.6-7.7,1-11.5,1.6-3.3.6-6.7,1-9.8,1.6-3.8.7-7.9.9-11.5,1.6-2.9.7-9.4,1.4-9.8,1.6-2.7,1.2-7.2,2-8.2,4.1l1.6,97.5c4.3-1.1,7.7.8,11.5,1.6,3.6.7,7.6.9,11.5,1.6,3.7.7,7.6,1,11.5,1.6,3.2.6,6.6,1.1,9.8,1.6,3.8.7,7.5.9,11.5,1.6,3.3.6,6.5,1,9.8,1.6,4.1.8,6.9.3,11.5,1.6,2.5.6,6.2-.4,9,0,3.5,1.5,1.9,5.6,2.5,6.6,2.1,3.8,1,5,1.6,6.6.9,2.2,1.1,3.4,1.6,4.9.7,1.8,1.1,3.1,1.6,4.9.5,1.6,1.1,3.4,1.6,4.9.6,1.6,1.1,3.4,1.6,4.9.6,1.7,1.1,3.4,1.6,4.9,3.3,6.9,25.1,48.5,24.6,51.6l-54.1,69.7v1.6l71.3,70.5,73-52.5h1.6c14.6,6.1,28.2,14.9,42.6,21.3,1,.5,2.3.4,4.9,1.6,2,.7,3.1,1.6,3.3,1.6,1.5.6,3.3,1.1,4.9,1.6,1.6.6,3.3,1.1,4.9,1.6,1.7.6,3.2,1,4.9,1.6,1.6.6,3.2.4,6.6,1.6,1.7.6,2.7-.5,6.6,1.6,1,.5,5.1-1,6.6,2.5.4,2.2-.5,5.5,0,7.4,1.5,4.6.8,6.5,1.6,9.8.7,3.5,1,6.4,1.6,9.8.7,3.4,1,6.5,1.6,9.8.7,3.9,1,7.7,1.6,11.5.7,4,.9,7.7,1.6,11.5.6,3.2,1.1,6.6,1.6,9.8.8,3.6.7,8.7,1.6,11.5.5,1.4,2.3,4,2.5,6.6l99.2-1.6c-1.1-4.3.8-7.7,1.6-11.5.7-3.1,1-6.5,1.6-9.8.7-3.6,1-7.6,1.6-11.5.6-3.2,1.1-6.6,1.6-9.8.7-3.7.9-7.5,1.6-11.5.6-3.3,1-6.4,1.6-9.8.8-3.9.7-7.3,1.6-11.5.6-2.8-1.6-8.3,1.6-9.8-.9-5.2,3.4-2.5,4.9-3.3,3.8-2,4.9-1,6.6-1.6,3.3-1.3,5.1-1.1,6.6-1.6,1.8-.7,3.2-1,4.9-1.6,1.7-.6,3.3-1.1,4.9-1.6,1.6-.6,3.4-1.1,4.9-1.6,1.7-.7,3.4-1.1,4.9-1.6.2,0,1.4-.9,3.3-1.6,14.4-6.5,28.1-15,42.6-21.3h1.6l73,52.5,71.3-71.3-52.5-71.3v-1.6c6.2-16.5,15.6-31.6,23-47.5.7-1.8,1.6-3.1,1.6-3.3.6-1.5,1-3.2,1.6-4.9.5-1.5,1.1-3.3,1.6-4.9.6-1.7,1-3.2,1.6-4.9.6-1.7.3-3.1,1.6-6.6.6-1.5-.3-2.8,1.6-6.6.7-1.3-1.2-5.8,3.3-6.6,1.5-3.3,7.1-1,9.8-1.6,3.7-.9,6.4-1,9.8-1.6,4.1-.8,7.6-1,11.5-1.6,3.9-.7,7.8-.9,11.5-1.6,3.2-.5,6.6-1.1,9.8-1.6,3.9-.7,7.9-.9,11.5-1.6,3.2-.6,6.8-1,9.8-1.6,3.8-.8,7.2-2.8,11.5-1.6,2-26.1,2.2-52.5,3.3-78.7-.3-4.4,1-13.2,0-16.4h-.2ZM597.2,392.3c-.3,3.2-1.1,8.1-1.6,11.5-.2.9-1.2,4.5-1.6,6.6-.4,2.4-1.1,5.8-1.6,8.2,0,.4-1.1,3.1-1.6,4.9-.3,1.1-1.2,3.4-1.6,4.9-17,47.4-54.9,86.6-100,108.2-.8.4-2.5.6-4.9,1.6-2.2.8-3.1,1.6-3.3,1.6-1.5.5-3.5,1.2-4.9,1.6-1.7.5-4,1.4-4.9,1.6-2,.5-4.6,1.2-6.6,1.6-2,.5-4.8,1.3-6.6,1.6-2.6.5-5.8,1.2-8.2,1.6-3.5.6-8,1.2-11.5,1.6-11.2.7-26.5.7-37.7,0-3.4-.4-8-1.1-11.5-1.6-2.3-.4-5.7-1.1-8.2-1.6s-5.8-1-8.2-1.6c-.8-.2-3.3-1.1-4.9-1.6-1.5-.4-3.4-1.1-4.9-1.6-2.6-.8-7.6-2.4-9.8-3.3-42.3-17.4-84.4-59.1-101.6-101.6-.6-1.4-1.1-3.3-1.6-4.9-.5-1.4-1.2-3.5-1.6-4.9-.5-1.6-1.2-3.5-1.6-4.9-.6-1.9-1.1-4.5-1.6-6.6-.6-2.4-1.1-5.6-1.6-8.2-.5-2.5-1.3-5.9-1.6-8.2-.7-4.3-1.3-10.4-1.6-14.8-.4-7.8-.4-16.7,0-24.6.4-5,1-11.4,1.6-16.4.3-2.2,1.2-5.8,1.6-8.2.5-2.5,1.1-5.7,1.6-8.2.1-.5,1.1-3,1.6-4.9.5-2.1,1.1-4.7,1.6-6.6.4-1.4,1.1-3.4,1.6-4.9,0-.2.9-1.2,1.6-3.3.9-2.2,1.2-4,1.6-4.9,18-41,58.3-81.4,100-98.4,1.4-.6,3.3-1,4.9-1.6,1.5-.5,3.4-1.1,4.9-1.6s3.6-1.3,4.9-1.6c1.9-.5,4.6-1.2,6.6-1.6,2-.5,5.4-1.4,6.6-1.6,2.5-.4,6-1.3,8.2-1.6,4-.5,9.3-1.4,13.1-1.6,10-.7,24.4-.7,34.4,0,3.2.3,8.1,1.1,11.5,1.6,2.8.4,6.9,1.1,9.8,1.6,1.3.3,4.7,1.2,6.6,1.6.6.1,3.2,1.1,4.9,1.6,2.1.6,4.6,1,6.6,1.6.2,0,.8.8,3.3,1.6,1.9.7,3.7,1.1,4.9,1.6,45.1,18.9,82.6,56.8,101.6,101.6.7,1.9,1.6,3.1,1.6,3.3.5,1.5,1.2,3.4,1.6,4.9.5,1.6,1.4,4,1.6,4.9.5,2,1.2,4.6,1.6,6.6.5,2,1.6,4.7,1.6,4.9.5,2.4,1.3,5.9,1.6,8.2.5,3.5,1.3,8.1,1.6,11.5.9,11.9.9,30.7,0,42.6h0v.2Z"/>
</svg>