<?xml version="1.0" encoding="UTF-8"?>
<svg id="Layer_1" xmlns="http://www.w3.org/2000/svg" version="1.1" viewBox="0 0 300 360">
  <!-- Generator: Adobe Illustrator 29.0.1, SVG Export Plug-In . SVG Version: 2.1.0 Build 192)  -->
  <defs>
    <style>
      .st0 {
        fill: #02d1c1;
      }

      .st1 {
        fill: #027a87;
      }

      .st2 {
        fill: #e7e7e7;
      }

      .st3 {
        fill: #047a87;
      }

      .st4 {
        fill: #057b88;
      }

      .st5 {
        fill: #03d1c1;
      }

      .st6 {
        fill: #feffff;
      }

      .st7 {
        fill: #fdfefe;
      }

      .st8 {
        fill: #05d2c2;
      }
    </style>
  </defs>
  <path class="st2" d="M5.8,278.1c-.6-11.6-1.2-22.9-1.6-34.1-.4-10.6-.7-21.3-.8-31.9-.3-24.9-.8-49.9-.8-74.8,0-12.6.6-25.3,1.7-37.9.7-8.9,1.4-18.1,4.4-26.3,3.8-10.5,10.6-19.7,20.1-26.4,10.9-7.8,22.9-12,36.5-11.8,8.3.1,16.5-.5,24.8-.8,9.8-.3,19.6-.7,29.4-.8,22.7-.3,45.4-.8,68.1-.8,15,0,30,.6,45,1.7,8.8.7,18,1.6,26.3,4.6,10.5,3.8,19.4,10.7,26.2,20.2,7.6,10.7,11.4,22.3,11.7,35.3.2,12.7,1.3,25.3,1.5,38,.5,24.8.7,49.6.8,74.4,0,10.2-.4,20.4-.8,30.6-.5,11.8-.7,23.7-1.8,35.4-1,11.2-5.2,21.5-12.1,30.6-8,10.5-18.7,17-30.8,21.2-3.9,1.4-8.3,1.7-12.4,1.9-14.2.7-28.4,1.4-42.5,1.7-24.5.5-49,.7-73.5.8-9.9,0-19.9-.4-29.8-.8-12.5-.5-25.1-.5-37.5-1.8-11.2-1.1-21.4-5.4-30.3-12.6-9.8-8-16.8-17.7-20.1-30-.5-1.8-1.1-3.6-1.6-5.7M293.9,198.2c0-6.5,0-12.9.2-20.2-.2-19.8-.3-39.7-.8-59.5-.3-11.2-1.1-22.4-2.5-33.5-2.5-20-19.6-39.1-39.3-43.2-10.8-2.2-21.9-2.9-32.9-3.4-17.6-.7-35.2-.9-52.8-.9-22.1,0-44.1.4-66.2.8-10.1.2-20.2.5-30.3.9-4.1.2-8.3.4-12.4,1-16.7,2.4-29.1,11.5-38.6,25-7,10-8.2,21.6-9,33.2-.8,13.3-1.6,26.5-1.6,39.8,0,24.3.3,48.6.7,72.8.4,19.4,1.3,38.8,1.6,58.2.4,23,17.7,46.1,40.3,50.5,13.3,2.6,27.2,2.7,40.8,3.5,11.9.7,23.8.9,35.7.9,30.7-.1,61.3-.3,92-.9,9.2-.2,18.4-1.4,27.6-2.3,23.1-2.3,46-26.9,45.4-52.3-.2-7.5.5-14.9.8-22.4.5-15.8,1-31.5,1.4-48.1Z"/>
  <path class="st6" d="M294.1,198.9c-.5,15.8-1,31.5-1.5,47.3-.2,7.5-1,15-.8,22.4.7,25.4-22.3,50-45.4,52.3-9.2.9-18.4,2.2-27.6,2.3-30.7.5-61.3.8-92,.9-11.9,0-23.8-.2-35.7-.9-13.6-.8-27.5-.9-40.8-3.5-22.6-4.5-39.9-27.5-40.3-50.5-.3-19.4-1.2-38.8-1.6-58.2-.4-24.3-.8-48.5-.7-72.8,0-13.3.8-26.6,1.6-39.8.7-11.6,1.9-23.2,9-33.2,9.5-13.5,21.9-22.6,38.6-25,4.1-.6,8.3-.8,12.4-1,10.1-.4,20.2-.7,30.3-.9,22.1-.3,44.1-.8,66.2-.8,17.6,0,35.2.2,52.8.9,11,.5,22.2,1.2,32.9,3.4,19.8,4.1,36.9,23.1,39.3,43.2,1.4,11.1,2.1,22.3,2.5,33.5.6,19.8.6,39.7.4,59.9-15.6,0-30.8-.6-45.9-1v20.5c15.6.4,31,.7,46.3,1.1M161.8,175.2c-.3-2.1-.5-4.1-.8-6.2-2.2-12.1-6.1-23.6-11.9-34.4-2.9-5.3-9.2-7-14.4-4.3-5,2.6-7.3,8.7-4.7,13.8,5.2,10.4,8.6,21.3,10,32.9-1.7.2-3.3.3-5,.5-19.4,1.7-38.4,5.1-55.7,14.9-22.8,12.9-35.7,31.4-33.6,58.5,1.5,18.9,19.3,37.6,37.6,39.7,1.2.1,2.5.2,3.7.3,23.3,2.7,41.5-6.5,54.6-25.3,14.3-20.5,20.8-43.7,21.7-68.8h21.5v-20.4c-2.9,0-5.5,0-8.1,0-5-.1-10.1-.3-15-1.2M128.7,122.6c5.1-5.6,5.3-11.3.1-16.5-4.5-4.6-9.3-9-14.3-13.2-5.3-4.5-11.8-4-15.8.8-3.8,4.6-3,11,1.8,15.5,4.1,3.8,8.2,7.4,12.1,11.4,5.1,5.1,9.1,5.9,16,2.1M223.8,197.1h11.2v-20.3h-37.1v20.3c8.5,0,16.8,0,25.9,0M70,74.6c-3.2,5.5-3.1,10.3.4,14.2,3.2,3.6,8.6,4.8,12.9,2.7,4.1-2,6.2-5.5,6.4-10,.2-4.2-2.7-8.4-6.8-10.1-4.7-1.9-8.9-.9-12.9,3.2Z"/>
  <path class="st4" d="M294,198.5c-15.3,0-30.7-.4-46.2-.7v-20.5c15.2.5,30.3.9,45.9,1.5.3,6.5.3,13,.4,19.8Z"/>
  <path class="st1" d="M82.9,290.2c-17.9-1.8-35.7-20.5-37.2-39.4-2.1-27.1,10.7-45.6,33.6-58.5,17.3-9.8,36.2-13.2,55.7-14.9,1.7-.1,3.3-.3,5.7-.6,7.5-.4,14.3-.7,21-1,5,.2,10.1.4,15.1.5,2.6,0,5.2,0,8.1,0v20.4c-7.2,0-14.4,0-22.2,0-2.2.3-3.7.6-5.2.6-5.3.1-10.7.2-16.4.2-7.8.8-15.3,1.3-22.6,2.5-14.9,2.4-28.5,8.1-39.7,18.5-16.3,15.1-18.1,42.3,6.9,50.9-7.1,3-10.1,8.7-7.4,14.5,1.1,2.3,3,4.1,4.6,6.1Z"/>
  <path class="st0" d="M141.5,197.7c5.3,0,10.7,0,16-.2,1.5,0,3-.3,4.8-.6.2,24.9-6.3,48.1-20.6,68.7-13.1,18.8-31.3,27.9-54.6,25.3-1.2-.1-2.5-.2-3.9-.5-1.8-2.2-3.7-4.1-4.8-6.3-2.7-5.8.3-11.5,7.8-14.5,4.7,0,9,.7,13,0,14.5-2.2,23.4-11.6,29.8-24,7.7-15,11.5-31.1,12.6-47.8Z"/>
  <path class="st0" d="M161.7,175.5c-6.8.7-13.6,1-20.7,1.3-2.4-11.4-5.8-22.3-11-32.6-2.6-5.2-.3-11.2,4.7-13.8,5.2-2.7,11.5-1.1,14.4,4.3,5.8,10.8,9.7,22.3,11.9,34.4.4,2,.6,4.1.8,6.5Z"/>
  <path class="st5" d="M128.5,122.7c-6.7,3.6-10.7,2.9-15.8-2.3-3.9-3.9-8-7.6-12.1-11.4-4.9-4.5-5.7-10.9-1.8-15.5,4-4.8,10.5-5.3,15.8-.8,4.9,4.2,9.7,8.6,14.3,13.2,5.2,5.3,4.9,10.9-.4,16.7Z"/>
  <path class="st3" d="M223.3,197.1c-8.7,0-17,0-25.5,0v-20.3h37.1v20.3c-3.8,0-7.5,0-11.6,0Z"/>
  <path class="st8" d="M70.2,74.4c3.8-3.8,8-4.8,12.7-2.9,4.1,1.7,7,5.8,6.8,10.1-.2,4.5-2.3,8-6.4,10-4.3,2.1-9.7.9-12.9-2.7-3.5-3.9-3.6-8.7-.2-14.4Z"/>
  <path class="st7" d="M141.1,197.7c-.7,16.8-4.5,32.9-12.2,47.9-6.4,12.4-15.3,21.8-29.8,24-4,.6-8.3-.1-12.8-.2-25.6-8.5-23.8-35.6-7.5-50.7,11.2-10.4,24.8-16,39.7-18.5,7.4-1.2,14.8-1.7,22.6-2.5Z"/>
</svg>