<?xml version="1.0" encoding="UTF-8"?>
<svg id="Layer_1" xmlns="http://www.w3.org/2000/svg" version="1.1" viewBox="0 0 500 500">
  <!-- Generator: Adobe Illustrator 29.0.1, SVG Export Plug-In . SVG Version: 2.1.0 Build 192)  -->
  <defs>
    <style>
      .st0 {
        fill: #fdfdfd;
      }

      .st0, .st1, .st2 {
        display: none;
      }

      .st3 {
        fill: #f1e833;
      }

      .st4 {
        fill: #161718;
      }

      .st1 {
        fill: #fddd27;
      }

      .st2 {
        fill: #c4c29c;
      }
    </style>
  </defs>
  <circle class="st1" cx="250" cy="250" r="244.6"/>
  <g>
    <path class="st0" d="M561.4-46v607.5H-32.7V-46h594.1ZM404.3,438.9c13.5-10.7,22.3-17.2,32-32s-.4-2,0-2.7c6.8,1.7,5.5-4.4,8-8C560.9,229.3,450.1,10.7,245.7,12.5,126.6,13.5,20.8,113.7,12.5,232.3c-14.8,211.6,224.5,339.2,391.8,206.6Z"/>
    <g>
      <path class="st3" d="M404.3,438.9C237,571.5-2.3,443.9,12.5,232.3,20.8,113.7,126.6,13.5,245.7,12.5c204.5-1.8,315.2,216.8,198.6,383.8-4.1,1.6-5.8,4.5-8,8s.4,2,0,2.7l-32,32ZM201.8,180.5h-46.6c-8.5,0-34.4,15.6-39.7,24.2l-68.2,119.7h73.3l81.3-143.9ZM289.7,180.5h-73.3l-81.3,143.9h73.3l81.3-143.9ZM375,180.5h-70.6l-81.3,143.9h46.6c5.9,0,32.2-16,37.1-21.5,15.4-16.8,45.6-76.2,57.9-99.3,1.8-3.4,11.8-21.7,10.2-23.1ZM411.5,181.1c-45.4,9.3-31.9,80.8,17.4,70.7,45.4-9.3,31.9-80.8-17.4-70.7Z"/>
      <path class="st2" d="M404.3,438.9l32-32c-9.7,14.8-18.5,21.3-32,32Z"/>
      <path class="st2" d="M444.2,396.3c-2.5,3.6-1.2,9.7-8,8,2.2-3.5,3.9-6.4,8-8Z"/>
      <g>
        <polygon class="st4" points="289.7 180.5 208.4 324.4 135.2 324.4 216.4 180.5 289.7 180.5"/>
        <path class="st4" d="M201.8,180.5l-81.3,143.9H47.3l68.2-119.7c5.3-8.6,31.2-24.2,39.7-24.2h46.6Z"/>
        <path class="st4" d="M375,180.5c1.6,1.4-8.4,19.7-10.2,23.1-12.2,23.1-42.5,82.5-57.9,99.3s-31.3,21.5-37.1,21.5h-46.6l81.3-143.9h70.6Z"/>
        <path class="st4" d="M411.5,181.1c49.4-10.1,62.8,61.4,17.4,70.7-49.4,10.1-62.8-61.4-17.4-70.7Z"/>
      </g>
    </g>
  </g>
</svg>