<?xml version="1.0" encoding="UTF-8"?>
<svg id="Layer_1" xmlns="http://www.w3.org/2000/svg" version="1.1" viewBox="0 0 800 800">
  <!-- Generator: Adobe Illustrator 29.0.1, SVG Export Plug-In . SVG Version: 2.1.0 Build 192)  -->
  <defs>
    <style>
      .st0 {
        fill: #cbd5ed;
      }
    </style>
  </defs>
  <path class="st0" d="M400,0C179.1,0,0,179.1,0,400s179.1,400,400,400,400-179.1,400-400c0-220.9-179.1-400-400-400ZM512,704.7c-2.3-31.3-4.9-70.1-5-85.8-1-12-2.3-42.7-31.4-62.3,115.5-9.7,170.5-73.5,174.5-157.9,3.3-48-15.8-90.3-49.7-124.4,1.7-36.5-1.1-79.7-3.4-98.7-26-7.5-86.8,24.6-103.8,38.3-35.8-13.9-123.4-18.8-176.7,0-37.8-26.5-80.7-42.9-104.1-38.4-21.6,47.9-7.7,93.2-3.5,98.6-27.9,25.5-66.7,56.8-56.1,122.4,16.9,96.2,84.6,148.1,193.6,160.8-23.2,4.8-27.2,22.1-29.1,29.6-.5.2-.9.4-1.3.5-1.3,6.9-2.3,14-3,21,.1.8.2,1.5.3,2.3,1.2,9.2,1.9,19-.3,28.1,1.5-.3,2.3-.5,2.4-.5,0,4.7-.5,44-1,74.7-137.8-37.7-239.3-163.4-239.3-313.2S220.5,75,400,75s325,145.5,325,325-88.7,259-213,304.7Z"/>
</svg>